<svg  viewBox="0 0 113 89" fill="none" xmlns="http://www.w3.org/2000/svg" xmlns:xlink="http://www.w3.org/1999/xlink">
	<g opacity="0.500000">
		<circle id="Ellipse 15" cx="2.500000" cy="2.500000" r="2.500000" fill="#6B2C88" fill-opacity="1.000000"/>
		<circle id="Ellipse 16" cx="20.500000" cy="2.500000" r="2.500000" fill="#6B2C88" fill-opacity="1.000000"/>
		<circle id="Ellipse 17" cx="38.500000" cy="2.500000" r="2.500000" fill="#6B2C88" fill-opacity="1.000000"/>
		<circle id="Ellipse 18" cx="56.500000" cy="2.500000" r="2.500000" fill="#6B2C88" fill-opacity="1.000000"/>
		<circle id="Ellipse 19" cx="74.500000" cy="2.500000" r="2.500000" fill="#6B2C88" fill-opacity="1.000000"/>
		<circle id="Ellipse 20" cx="92.500000" cy="2.500000" r="2.500000" fill="#6B2C88" fill-opacity="1.000000"/>
		<circle id="Ellipse 21" cx="110.500000" cy="2.500000" r="2.500000" fill="#6B2C88" fill-opacity="1.000000"/>
		<circle id="Ellipse 15" cx="2.500000" cy="23.500000" r="2.500000" fill="#6B2C88" fill-opacity="1.000000"/>
		<circle id="Ellipse 16" cx="20.500000" cy="23.500000" r="2.500000" fill="#6B2C88" fill-opacity="1.000000"/>
		<circle id="Ellipse 17" cx="38.500000" cy="23.500000" r="2.500000" fill="#6B2C88" fill-opacity="1.000000"/>
		<circle id="Ellipse 18" cx="56.500000" cy="23.500000" r="2.500000" fill="#6B2C88" fill-opacity="1.000000"/>
		<circle id="Ellipse 19" cx="74.500000" cy="23.500000" r="2.500000" fill="#6B2C88" fill-opacity="1.000000"/>
		<circle id="Ellipse 20" cx="92.500000" cy="23.500000" r="2.500000" fill="#6B2C88" fill-opacity="1.000000"/>
		<circle id="Ellipse 21" cx="110.500000" cy="23.500000" r="2.500000" fill="#6B2C88" fill-opacity="1.000000"/>
		<circle id="Ellipse 15" cx="2.500000" cy="44.500000" r="2.500000" fill="#6B2C88" fill-opacity="1.000000"/>
		<circle id="Ellipse 16" cx="20.500000" cy="44.500000" r="2.500000" fill="#6B2C88" fill-opacity="1.000000"/>
		<circle id="Ellipse 17" cx="38.500000" cy="44.500000" r="2.500000" fill="#6B2C88" fill-opacity="1.000000"/>
		<circle id="Ellipse 18" cx="56.500000" cy="44.500000" r="2.500000" fill="#6B2C88" fill-opacity="1.000000"/>
		<circle id="Ellipse 19" cx="74.500000" cy="44.500000" r="2.500000" fill="#6B2C88" fill-opacity="1.000000"/>
		<circle id="Ellipse 20" cx="92.500000" cy="44.500000" r="2.500000" fill="#6B2C88" fill-opacity="1.000000"/>
		<circle id="Ellipse 21" cx="110.500000" cy="44.500000" r="2.500000" fill="#6B2C88" fill-opacity="1.000000"/>
		<circle id="Ellipse 15" cx="2.500000" cy="65.500000" r="2.500000" fill="#6B2C88" fill-opacity="1.000000"/>
		<circle id="Ellipse 16" cx="20.500000" cy="65.500000" r="2.500000" fill="#6B2C88" fill-opacity="1.000000"/>
		<circle id="Ellipse 17" cx="38.500000" cy="65.500000" r="2.500000" fill="#6B2C88" fill-opacity="1.000000"/>
		<circle id="Ellipse 18" cx="56.500000" cy="65.500000" r="2.500000" fill="#6B2C88" fill-opacity="1.000000"/>
		<circle id="Ellipse 19" cx="74.500000" cy="65.500000" r="2.500000" fill="#6B2C88" fill-opacity="1.000000"/>
		<circle id="Ellipse 20" cx="92.500000" cy="65.500000" r="2.500000" fill="#6B2C88" fill-opacity="1.000000"/>
		<circle id="Ellipse 21" cx="110.500000" cy="65.500000" r="2.500000" fill="#6B2C88" fill-opacity="1.000000"/>
		<circle id="Ellipse 15" cx="2.500000" cy="86.500000" r="2.500000" fill="#6B2C88" fill-opacity="1.000000"/>
		<circle id="Ellipse 16" cx="20.500000" cy="86.500000" r="2.500000" fill="#6B2C88" fill-opacity="1.000000"/>
		<circle id="Ellipse 17" cx="38.500000" cy="86.500000" r="2.500000" fill="#6B2C88" fill-opacity="1.000000"/>
		<circle id="Ellipse 18" cx="56.500000" cy="86.500000" r="2.500000" fill="#6B2C88" fill-opacity="1.000000"/>
		<circle id="Ellipse 19" cx="74.500000" cy="86.500000" r="2.500000" fill="#6B2C88" fill-opacity="1.000000"/>
		<circle id="Ellipse 20" cx="92.500000" cy="86.500000" r="2.500000" fill="#6B2C88" fill-opacity="1.000000"/>
		<circle id="Ellipse 21" cx="110.500000" cy="86.500000" r="2.500000" fill="#6B2C88" fill-opacity="1.000000"/>
	</g>
</svg>
