<svg viewBox="0 0 24 21" fill="none" xmlns="http://www.w3.org/2000/svg" xmlns:xlink="http://www.w3.org/1999/xlink">
	<path id="Vector" d="M0.53 14.29C1.82 13.18 3.26 13.61 5.2 13.85C6.87 14.05 8.51 13.68 8.4 12.96C8.22 11.81 7.98 11.29 7.43 9.79C6.99 8.59 6.15 6.44 5.39 4.39C4.37 1.64 4.08 0.36 5.43 0.04C6.9 -0.3 7.73 1.35 8.49 3.65C9.36 6.26 9.81 7.41 10.07 7.35C10.52 7.25 9.9 6.13 11.08 5.86C12.55 5.52 12.83 6.43 13.24 6.34C13.65 6.24 13.51 5.31 14.69 5.04C15.86 4.77 16.45 5.93 16.94 5.81C17.42 5.7 17.41 5.28 18.13 5.12C18.86 4.94 21.6 5.92 23.16 10.18C25.13 15.53 22.91 16.53 23.58 18.34L14.81 21C14.1 19.64 11.91 19.53 9.96 18.67C8 17.79 6.67 16.08 1.56 16.16C-0.36 16.19 -0.27 14.97 0.53 14.29Z" fill="#222222" fill-opacity="1.000000" fill-rule="nonzero"/>
</svg>
