<svg  viewBox="0 0 47 60" fill="none" xmlns="http://www.w3.org/2000/svg" xmlns:xlink="http://www.w3.org/1999/xlink">
	<path id="Rectangle 40" d="M8.83 44.79C7.33 46.22 5 46.26 3.45 44.9C1.81 43.46 1.63 40.97 3.05 39.31L32.19 5.14C34.57 2.35 38.8 2.15 41.43 4.7C44.02 7.21 44 11.37 41.39 13.86L8.83 44.79Z" fill="#F8D008" fill-opacity="1.000000" fill-rule="nonzero"/>
	<path id="Rectangle 41" d="M11.67 55.69C10.53 56.21 9.18 55.78 8.54 54.7C7.87 53.55 8.24 52.07 9.38 51.38L29.96 38.88C31.85 37.73 34.32 38.41 35.35 40.37C36.38 42.32 35.56 44.74 33.55 45.66L11.67 55.69Z" fill="#F8D008" fill-opacity="1.000000" fill-rule="nonzero"/>
</svg>
