<svg width="47" height="60" viewBox="0 0 47 60" fill="none" xmlns="http://www.w3.org/2000/svg">
<path d="M37.808 14.5107C39.3043 13.089 41.638 13.0433 43.1887 14.4055C44.8268 15.8445 45.0061 18.3321 43.5912 19.9912L14.4482 54.1633C12.0711 56.9506 7.83414 57.1512 5.20431 54.6011C2.61581 52.091 2.6369 47.931 5.25072 45.4473L37.808 14.5107Z" fill="#F8D008"/>
<path d="M34.9657 3.61592C36.1069 3.09287 37.4589 3.51907 38.0939 4.60209C38.7694 5.75426 38.3955 7.23531 37.254 7.92874L16.6837 20.4248C14.7914 21.5743 12.3217 20.8921 11.2877 18.9343C10.2565 16.9816 11.0782 14.5636 13.0857 13.6435L34.9657 3.61592Z" fill="#F8D008"/>
</svg>
