<svg width="171.000000" height="56.000000" viewBox="0 0 171 56" fill="none" xmlns="http://www.w3.org/2000/svg" xmlns:xlink="http://www.w3.org/1999/xlink">
	<desc>
			Created with Pixso.
	</desc>
	<defs/>
	<path d="M14.69 25.44L8.01 21.51L28.5 33.58L14.69 25.44Z" fill="#FFE26E" fill-opacity="1.000000" fill-rule="nonzero"/>
	<path d="M28.5 33.58L48.98 21.51L42.3 25.44L28.5 33.58Z" fill="#FFE26E" fill-opacity="1.000000" fill-rule="nonzero"/>
	<path d="M0 16.79L5.02 19.75C5.66 19 6.55 18.51 7.53 18.39L28.5 15.81L7.53 18.39C6.55 18.51 5.66 19 5.02 19.75L8.01 21.51L14.69 25.44L28.5 33.58L42.3 25.44L48.98 21.51L57 16.79L28.5 0L0 16.79Z" fill="#96C9EF" fill-opacity="1.000000" fill-rule="nonzero"/>
	<path d="M6.05 53.86L4.1 43.13L0.2 55.81L6.05 53.86Z" fill="#55A2FF" fill-opacity="1.000000" fill-rule="nonzero"/>
	<path d="M8.01 21.51L8.01 33.37C8.01 36.58 10.69 39.46 14.94 41.42C19.22 43.27 23.84 44.18 28.5 44.11L28.5 33.58L8.01 21.51Z" fill="#D0E6F8" fill-opacity="1.000000" fill-rule="nonzero"/>
	<path d="M28.5 33.58L28.5 44.11C33.15 44.18 37.77 43.27 42.05 41.42C46.3 39.46 48.98 36.58 48.98 33.37L48.98 21.51L28.5 33.58Z" fill="#DBECFA" fill-opacity="1.000000" fill-rule="nonzero"/>
	<path d="M4.1 39.23C3.56 39.23 3.13 38.79 3.13 38.25L3.13 22.26C3.13 19.8 4.97 17.72 7.41 17.42L28.38 14.84C28.91 14.78 29.4 15.16 29.46 15.69C29.53 16.23 29.15 16.71 28.61 16.78L7.65 19.36C6.18 19.54 5.08 20.78 5.08 22.26L5.08 38.25C5.08 38.79 4.64 39.23 4.1 39.23Z" fill="#57A4FF" fill-opacity="1.000000" fill-rule="nonzero"/>
	<path d="M8.01 41.18C8.01 43.33 6.26 45.08 4.1 45.08C1.95 45.08 0.2 43.33 0.2 41.18C0.2 39.02 1.95 37.28 4.1 37.28C6.26 37.28 8.01 39.02 8.01 41.18Z" fill="#398DF3" fill-opacity="1.000000" fill-rule="nonzero"/>
	<path d="M77.45 34L81.07 34L81.07 16.86L70.25 16.86Q70.03 18.71 69.79 20.42Q69.55 22.14 69.33 23.58Q69.1 25.03 68.93 26.1Q68.75 27.17 68.65 27.76Q68.4 29.1 68.16 29.85Q67.91 30.61 67.6 30.92Q67.48 31.04 67.33 31.11Q67.11 31.23 66.82 31.23Q66.46 31.23 66.15 31.16Q65.85 31.1 65.54 31L65.54 33.97Q65.92 34.09 66.36 34.16Q66.8 34.23 67.28 34.23Q68.72 34.23 69.61 33.68Q69.76 33.59 69.89 33.49Q70.59 32.96 71.03 32.08Q71.55 31.03 71.86 29.53Q72.05 28.63 72.24 27.43Q72.43 26.24 72.61 24.91Q72.78 23.59 72.95 22.29Q73.11 20.99 73.25 19.89L77.45 19.89L77.45 34ZM96.58 30.33Q97.02 29.06 97.02 27.42Q97.02 25.24 96.2 23.73Q95.66 22.72 94.84 22.03Q94.44 21.69 93.97 21.43Q93.92 21.41 93.88 21.39Q92.49 20.65 90.7 20.65Q88.72 20.65 87.29 21.43Q86.74 21.73 86.29 22.14Q85.57 22.8 85.09 23.73Q84.32 25.24 84.32 27.42Q84.32 29.06 84.78 30.33Q85.24 31.59 86.09 32.47Q86.44 32.83 86.85 33.12Q87.42 33.52 88.09 33.78Q89.25 34.23 90.63 34.23Q92.11 34.23 93.29 33.78Q94.11 33.47 94.77 32.95Q95.05 32.73 95.3 32.47Q96.14 31.59 96.58 30.33ZM122.91 30.33Q123.35 29.06 123.35 27.42Q123.35 25.24 122.54 23.73Q121.99 22.72 121.17 22.03Q120.77 21.69 120.3 21.43Q120.25 21.41 120.21 21.39Q118.82 20.65 117.03 20.65Q115.05 20.65 113.62 21.43Q113.08 21.73 112.62 22.14Q111.9 22.8 111.42 23.73Q110.65 25.24 110.65 27.42Q110.65 29.06 111.11 30.33Q111.57 31.59 112.42 32.47Q112.78 32.83 113.18 33.12Q113.75 33.52 114.43 33.78Q115.58 34.23 116.96 34.23Q118.44 34.23 119.62 33.78Q120.45 33.47 121.11 32.95Q121.39 32.73 121.63 32.47Q122.47 31.59 122.91 30.33ZM109.02 23.58L109.02 20.89L99.97 20.89L99.97 34L103.55 34L103.55 23.58L109.02 23.58ZM132.85 23.58L137.14 23.58L137.14 20.89L124.98 20.89L124.98 23.58L129.28 23.58L129.28 34L132.85 34L132.85 23.58ZM143.04 26.07L143.04 20.89L139.58 20.89L139.58 34L143.87 34L149.89 24.83Q149.87 25.18 149.81 25.87Q149.75 26.57 149.71 27.34Q149.66 28.12 149.66 28.77L149.66 34L153.12 34L153.12 20.89L148.82 20.89L142.77 30.08Q142.79 29.91 142.84 29.41Q142.89 28.92 142.93 28.3Q142.98 27.68 143.01 27.08Q143.04 26.47 143.04 26.07ZM168.77 34L168.77 20.89L156.87 20.89L156.87 34L160.44 34L160.44 23.58L165.19 23.58L165.19 34L168.77 34ZM88.24 29.59Q87.96 28.71 87.96 27.42Q87.96 25.48 88.6 24.5Q88.78 24.22 89.03 24.02Q89.65 23.53 90.66 23.53Q91.62 23.53 92.21 23.96Q92.23 23.97 92.24 23.99Q92.82 24.42 93.09 25.26Q93.36 26.12 93.36 27.42Q93.36 28.71 93.09 29.59Q92.81 30.47 92.22 30.91Q91.63 31.36 90.68 31.36Q89.72 31.36 89.12 30.91Q88.52 30.47 88.24 29.59ZM114.57 29.59Q114.29 28.71 114.29 27.42Q114.29 25.48 114.93 24.5Q115.12 24.22 115.36 24.02Q115.98 23.53 116.99 23.53Q117.95 23.53 118.55 23.96Q118.56 23.97 118.58 23.99Q119.15 24.42 119.42 25.26Q119.69 26.12 119.69 27.42Q119.69 28.71 119.42 29.59Q119.14 30.47 118.55 30.91Q117.96 31.36 117.01 31.36Q116.05 31.36 115.45 30.91Q114.85 30.47 114.57 29.59Z" fill="#FFFFFF" fill-opacity="1.000000" fill-rule="evenodd"/>
</svg>
