<svg viewBox="0 0 113 89" fill="none" xmlns="http://www.w3.org/2000/svg"><g opacity=".5" fill="#6B2C88"><circle cx="2.5" cy="2.5" r="2.5"/><circle cx="20.5" cy="2.5" r="2.5"/><circle cx="38.5" cy="2.5" r="2.5"/><circle cx="56.5" cy="2.5" r="2.5"/><circle cx="74.5" cy="2.5" r="2.5"/><circle cx="92.5" cy="2.5" r="2.5"/><circle cx="110.5" cy="2.5" r="2.5"/><circle cx="2.5" cy="23.5" r="2.5"/><circle cx="20.5" cy="23.5" r="2.5"/><circle cx="38.5" cy="23.5" r="2.5"/><circle cx="56.5" cy="23.5" r="2.5"/><circle cx="74.5" cy="23.5" r="2.5"/><circle cx="92.5" cy="23.5" r="2.5"/><circle cx="110.5" cy="23.5" r="2.5"/><circle cx="2.5" cy="44.5" r="2.5"/><circle cx="20.5" cy="44.5" r="2.5"/><circle cx="38.5" cy="44.5" r="2.5"/><circle cx="56.5" cy="44.5" r="2.5"/><circle cx="74.5" cy="44.5" r="2.5"/><circle cx="92.5" cy="44.5" r="2.5"/><circle cx="110.5" cy="44.5" r="2.5"/><circle cx="2.5" cy="65.5" r="2.5"/><circle cx="20.5" cy="65.5" r="2.5"/><circle cx="38.5" cy="65.5" r="2.5"/><circle cx="56.5" cy="65.5" r="2.5"/><circle cx="74.5" cy="65.5" r="2.5"/><circle cx="92.5" cy="65.5" r="2.5"/><circle cx="110.5" cy="65.5" r="2.5"/><circle cx="2.5" cy="86.5" r="2.5"/><circle cx="20.5" cy="86.5" r="2.5"/><circle cx="38.5" cy="86.5" r="2.5"/><circle cx="56.5" cy="86.5" r="2.5"/><circle cx="74.5" cy="86.5" r="2.5"/><circle cx="92.5" cy="86.5" r="2.5"/><circle cx="110.5" cy="86.5" r="2.5"/></g></svg>