<svg viewBox="0 0 24 21" fill="none" xmlns="http://www.w3.org/2000/svg"><path d="M.53 14.29c1.29-1.11 2.73-.68 4.67-.44 1.67.2 3.31-.17 3.2-.89-.18-1.15-.42-1.67-.97-3.17-.44-1.2-1.28-3.35-2.04-5.4C4.37 1.64 4.08.36 5.43.04 6.9-.3 7.73 1.35 8.49 3.65c.87 2.61 1.32 3.76 1.58 3.7.45-.1-.17-1.22 1.01-1.49 1.47-.34 1.75.57 2.16.48.41-.1.27-1.03 1.45-1.3 1.17-.27 1.76.89 2.25.77.48-.11.47-.53 1.19-.69.73-.18 3.47.8 5.03 5.06 1.97 5.35-.25 6.35.42 8.16L14.81 21c-.71-1.36-2.9-1.47-4.85-2.33-1.96-.88-3.29-2.59-8.4-2.51-1.92.03-1.83-1.19-1.03-1.87z" fill="#222"/></svg>