<svg viewBox="0 0 171 56" fill="none" xmlns="http://www.w3.org/2000/svg"><path d="M14.69 25.44l-6.68-3.93L28.5 33.58l-13.81-8.14zm13.81 8.14l20.48-12.07-6.68 3.93-13.8 8.14z" fill="#FFE26E"/><path d="M0 16.79l5.02 2.96c.64-.75 1.53-1.24 2.51-1.36l20.97-2.58-20.97 2.58c-.98.12-1.87.61-2.51 1.36l2.99 1.76 6.68 3.93 13.81 8.14 13.8-8.14 6.68-3.93L57 16.79 28.5 0 0 16.79z" fill="#96C9EF"/><path d="M6.05 53.86L4.1 43.13.2 55.81l5.85-1.95z" fill="#55A2FF"/><path d="M8.01 21.51v11.86c0 3.21 2.68 6.09 6.93 8.05 4.28 1.85 8.9 2.76 13.56 2.69V33.58L8.01 21.51z" fill="#D0E6F8"/><path d="M28.5 33.58v10.53a32.9 32.9 0 0013.55-2.69c4.25-1.96 6.93-4.84 6.93-8.05V21.51L28.5 33.58z" fill="#DBECFA"/><path d="M4.1 39.23c-.54 0-.97-.44-.97-.98V22.26c0-2.46 1.84-4.54 4.28-4.84l20.97-2.58a.976.976 0 011.08.85.971.971 0 01-.85 1.09L7.65 19.36a2.918 2.918 0 00-2.57 2.9v15.99c0 .54-.44.98-.98.98z" fill="#57A4FF"/><path d="M8.01 41.18a3.905 3.905 0 01-7.81 0c0-2.16 1.75-3.9 3.9-3.9a3.9 3.9 0 013.91 3.9z" fill="#398DF3"/><path d="M77.45 34h3.62V16.86H70.25q-.22 1.85-.46 3.56-.24 1.72-.46 3.16l-.4 2.52-.28 1.66q-.25 1.34-.49 2.09-.25.76-.56 1.07-.12.12-.27.19-.22.12-.51.12-.36 0-.67-.07-.3-.06-.61-.16v2.97q.38.12.82.19.44.07.92.07 1.44 0 2.33-.55.15-.09.28-.19.7-.53 1.14-1.41.52-1.05.83-2.55.19-.9.38-2.1.19-1.19.37-2.52.17-1.32.34-2.62.16-1.3.3-2.4h4.2V34zm19.13-3.67q.44-1.27.44-2.91 0-2.18-.82-3.69-.54-1.01-1.36-1.7-.4-.34-.87-.6-.05-.02-.09-.04-1.39-.74-3.18-.74-1.98 0-3.41.78-.55.3-1 .71-.72.66-1.2 1.59-.77 1.51-.77 3.69 0 1.64.46 2.91.46 1.26 1.31 2.14.35.36.76.65.57.4 1.24.66 1.16.45 2.54.45 1.48 0 2.66-.45.82-.31 1.48-.83.28-.22.53-.48.84-.88 1.28-2.14zm26.33 0q.44-1.27.44-2.91 0-2.18-.81-3.69-.55-1.01-1.37-1.7-.4-.34-.87-.6-.05-.02-.09-.04-1.39-.74-3.18-.74-1.98 0-3.41.78-.54.3-1 .71-.72.66-1.2 1.59-.77 1.51-.77 3.69 0 1.64.46 2.91.46 1.26 1.31 2.14.36.36.76.65.57.4 1.25.66 1.15.45 2.53.45 1.48 0 2.66-.45.83-.31 1.49-.83.28-.22.52-.48.84-.88 1.28-2.14zm-13.89-6.75v-2.69h-9.05V34h3.58V23.58h5.47zm23.83 0h4.29v-2.69h-12.16v2.69h4.3V34h3.57V23.58zm10.19 2.49v-5.18h-3.46V34h4.29l6.02-9.17q-.02.35-.08 1.04-.06.7-.1 1.47-.05.78-.05 1.43V34h3.46V20.89h-4.3l-6.05 9.19q.02-.17.07-.67.05-.49.09-1.11.05-.62.08-1.22.03-.61.03-1.01zM168.77 34V20.89h-11.9V34h3.57V23.58h4.75V34h3.58zm-80.53-4.41q-.28-.88-.28-2.17 0-1.94.64-2.92.18-.28.43-.48.62-.49 1.63-.49.96 0 1.55.43.02.01.03.03.58.43.85 1.27.27.86.27 2.16 0 1.29-.27 2.17-.28.88-.87 1.32-.59.45-1.54.45-.96 0-1.56-.45-.6-.44-.88-1.32zm26.33 0q-.28-.88-.28-2.17 0-1.94.64-2.92.19-.28.43-.48.62-.49 1.63-.49.96 0 1.56.43l.03.03q.57.43.84 1.27.27.86.27 2.16 0 1.29-.27 2.17-.28.88-.87 1.32-.59.45-1.54.45-.96 0-1.56-.45-.6-.44-.88-1.32z" fill="#FFF" fill-rule="evenodd"/></svg>