<svg width="57" height="56" fill="none" xmlns="http://www.w3.org/2000/svg"><path d="M14.694 25.446L8.01 21.514l20.49 12.07-13.806-8.138zM28.5 33.583l20.49-12.069-6.684 3.932L28.5 33.583z" fill="#FFE26E"/><path d="M0 16.792l5.03 2.965a3.889 3.889 0 012.504-1.366L28.5 15.816 7.534 18.392a3.89 3.89 0 00-2.504 1.366l2.98 1.756 6.684 3.932L28.5 33.584l13.806-8.138 6.684-3.932L57 16.792 28.5 0 0 16.792z" fill="#96C9EF"/><path d="M6.06 53.868L4.107 43.135.205 55.82l5.854-1.95z" fill="#55A2FF"/><path d="M8.01 21.514v11.864c0 3.21 2.684 6.089 6.938 8.05A32.92 32.92 0 0028.5 44.111V33.583L8.01 21.514z" fill="#D0E6F8"/><path d="M28.5 33.583v10.528a32.92 32.92 0 0013.553-2.683c4.253-1.961 6.937-4.84 6.937-8.05V21.514L28.5 33.584z" fill="#DBECFA"/><path d="M4.108 39.233a.976.976 0 01-.976-.976V22.265a4.886 4.886 0 014.284-4.842l20.965-2.576a.976.976 0 01.238 1.938L7.654 19.36a2.927 2.927 0 00-2.57 2.904v15.992a.976.976 0 01-.976.976z" fill="#57A4FF"/><path d="M8.01 41.184a3.903 3.903 0 11-7.805 0 3.903 3.903 0 017.806 0z" fill="#398DF3"/></svg>